<?xml version="1.0" encoding="UTF-8"?>
<svg id="Layer_1" xmlns="http://www.w3.org/2000/svg" version="1.1" viewBox="0 0 240 240">
  <!-- Generator: Adobe Illustrator 29.8.2, SVG Export Plug-In . SVG Version: 2.1.1 Build 3)  -->
  <rect y="0" width="240" height="240" style="fill: #fde040;"/>
  <path d="M120,81" style="fill: #b24c26;"/>
  <polygon points="219.2 116.06 202.6 142.12 169.4 142.12 152.8 116.06 94.2 116.06 75.1 90 36.9 90 17.8 116.06 17.8 116.06 0 116.06 0 123.94 22.8 123.94 22.8 123.94 39.4 97.88 72.6 97.88 89.2 123.94 147.8 123.94 166.9 150 205.1 150 224.2 123.94 240 123.94 240 116.06 219.2 116.06" style="fill: #f99d1c;"/>
  <polygon points="123.94 89.2 123.94 89.2 97.88 72.6 97.88 39.4 123.94 22.8 123.94 0 116.06 0 116.06 17.8 90 36.9 90 75.1 116.06 94.2 116.06 152.8 116.06 152.8 142.12 169.4 142.12 202.6 116.06 219.2 116.06 240 123.94 240 123.94 224.2 150 205.1 150 166.9 123.94 147.8 123.94 89.2" style="fill: #f99d1c;"/>
</svg>